<?xml version="1.0" encoding="utf-8"?>
<!-- Generator: Adobe Illustrator 16.0.0, SVG Export Plug-In . SVG Version: 6.00 Build 0)  -->
<!DOCTYPE svg PUBLIC "-//W3C//DTD SVG 1.1//EN" "http://www.w3.org/Graphics/SVG/1.1/DTD/svg11.dtd">
<svg version="1.1" id="Layer_1" xmlns="http://www.w3.org/2000/svg" xmlns:xlink="http://www.w3.org/1999/xlink" x="0px" y="0px"
	 width="371.981px" height="332.983px" viewBox="0 0 371.981 332.983" enable-background="new 0 0 371.981 332.983"
	 xml:space="preserve">
<g>
	<g>
		<path fill="#FBB03B" d="M75.123,316.95c30.189-25.979,69.467-41.689,112.394-41.689c42.946,0,82.222,15.711,112.409,41.689
			c36.736-31.619,60.002-78.453,60.002-130.727c0-95.234-77.19-172.431-172.411-172.431c-95.202,0-172.399,77.196-172.399,172.431
			C15.117,238.497,38.385,285.331,75.123,316.95z"/>
	</g>
	<g>
		<path fill="#F7931E" d="M78.077,52.992c-38.44,31.624-62.96,79.562-62.96,133.231c0,52.273,23.268,99.107,60.006,130.727
			c30.189-25.979,69.467-41.689,112.394-41.689c42.946,0,82.222,15.711,112.409,41.689c36.736-31.619,60.002-78.453,60.002-130.727
			c0-53.668-24.516-101.604-62.955-133.229c-33.93-13.238-70.844-20.514-109.46-20.514C148.907,32.481,112.002,39.755,78.077,52.992
			z"/>
	</g>
	<g>
		<path fill="#F15A24" d="M17.044,160.391c-1.266,8.428-1.927,17.052-1.927,25.832c0,52.273,23.268,99.107,60.006,130.727
			c30.189-25.979,69.467-41.689,112.394-41.689c42.946,0,82.222,15.711,112.409,41.689c36.736-31.619,60.002-78.453,60.002-130.727
			c0-8.78-0.66-17.404-1.927-25.832c-48.485-33.338-107.202-52.865-170.488-52.865C124.238,107.526,65.526,127.054,17.044,160.391z"
			/>
	</g>
	<g>
		<path fill="#C1272D" d="M187.514,188.2c-61.591,0-117.81,22.995-160.571,60.854c10.352,26.43,27.026,49.688,48.181,67.896
			c30.189-25.979,69.467-41.689,112.394-41.689c42.946,0,82.222,15.711,112.409,41.689c21.153-18.207,37.826-41.465,48.178-67.896
			C305.34,211.195,249.116,188.2,187.514,188.2z"/>
	</g>
</g>
<g>
	<g>
		<path fill="#231F20" d="M168.682,199.844c-14.326-80.109-76.117-52.334-76.117-52.334l18.677,22.439
			c-9.491,1.182-16.188,4.192-16.188,4.192l17.944,21.562c-7.403,4.334-12.421,8.756-12.421,8.756l73.497,64.616
			c0.279-16.583-0.686-30.011-2.573-40.812C171.162,217.17,170.186,207.766,168.682,199.844z"/>
	</g>
</g>
<g>
	<path fill-rule="evenodd" clip-rule="evenodd" fill="#231F20" d="M236.208,127.495c0.294-0.484,0.567-0.973,1.022-1.465
		c0.972-1.049,1.041-3.094,1.137-4.707c0.391-6.389-2.414-11.828-9.468-13.747c-2.52-0.687-4.51-1.696-6.056-2.916l10.014-17.64
		l-15.092,6.076c-0.027-4.576,1.375-8.544,1.659-9.16c2.827-6.139,0.348-14.266-6.021-15.592
		c-7.338-1.529-15.097-1.175-22.667-1.602c-0.045,0.461,5.93,7.656,5.93,7.656c-10.34,0-20.666,0-32.243,0
		c4.95,4,8.815,7.007,12.671,10.047c-0.147,0.285-0.303,0.66-0.454,0.953c-10.907,0-21.813,0-33.503,0
		c9.27,18.811,23.92,25.719,43.9,22.824l0.942,2.235c-0.182-0.026-0.094-0.038-0.094-0.038v160.105
		C284.883,188.131,266.889,147.193,236.208,127.495z"/>
</g>
<g>
	<g>
		<path fill-rule="evenodd" clip-rule="evenodd" fill="#F15A24" d="M210.578,98.292c0,2.259-1.834,4.093-4.1,4.093
			c-2.26,0-4.094-1.834-4.094-4.093c0-2.265,1.834-4.099,4.094-4.099C208.744,94.194,210.578,96.028,210.578,98.292z"/>
	</g>
</g>
</svg>
