<?xml version="1.0" encoding="UTF-8" standalone="no"?>
<!-- Created with Inkscape (http://www.inkscape.org/) -->

<svg
   width="24"
   height="24"
   viewBox="0 0 6.3499998 6.3499999"
   version="1.1"
   id="svg392"
   sodipodi:docname="vscoq_logo.svg"
   inkscape:version="1.2.1 (9c6d41e410, 2022-07-14, custom)"
   inkscape:export-filename="vscoq_logo.png"
   inkscape:export-xdpi="96"
   inkscape:export-ydpi="96"
   xmlns:inkscape="http://www.inkscape.org/namespaces/inkscape"
   xmlns:sodipodi="http://sodipodi.sourceforge.net/DTD/sodipodi-0.dtd"
   xmlns="http://www.w3.org/2000/svg"
   xmlns:svg="http://www.w3.org/2000/svg">
  <sodipodi:namedview
     id="namedview394"
     pagecolor="#ffffff"
     bordercolor="#000000"
     borderopacity="0.25"
     inkscape:showpageshadow="2"
     inkscape:pageopacity="0"
     inkscape:pagecheckerboard="0"
     inkscape:deskcolor="#d1d1d1"
     inkscape:document-units="mm"
     showgrid="false"
     inkscape:zoom="41.403919"
     inkscape:cx="8.6344483"
     inkscape:cy="14.068717"
     inkscape:window-width="3840"
     inkscape:window-height="2095"
     inkscape:window-x="0"
     inkscape:window-y="37"
     inkscape:window-maximized="1"
     inkscape:current-layer="layer1" />
  <defs
     id="defs389" />
  <g
     inkscape:label="Layer 1"
     inkscape:groupmode="layer"
     id="layer1">
    <path
       id="path246"
       d="M 3.175,0.38323246 C 1.4217745,0.38323246 2.5296594e-8,1.8050193 2.5296594e-8,3.5588526 -1.8384703e-5,4.5215226 0.42848747,5.3844768 1.1050489,5.9667675 1.6610048,5.4883423 2.3844628,5.1984422 3.175,5.1984422 c 0.7908871,0 1.5140321,0.2899186 2.0699513,0.7683253 C 5.9214756,5.3844768 6.35,4.5215226 6.35,3.5588526 6.35,1.8050377 4.9285752,0.38323246 3.175,0.38323246 Z M 3.4348292,1.2985254 c 0.1394077,0.00786 0.2828234,0.00161 0.4179589,0.029766 0.1172904,0.024419 0.1624423,0.1740594 0.1103808,0.2871142 -0.00523,0.01134 -0.030883,0.084401 -0.030385,0.1686719 L 4.2105957,1.6718355 4.0264208,1.9967768 c 0.028471,0.022468 0.065213,0.041298 0.1116216,0.05395 0.129905,0.03534 0.1814533,0.1353491 0.1742527,0.2530078 -0.00176,0.029705 -0.00318,0.067499 -0.021084,0.086816 -0.00838,0.00906 -0.013189,0.017752 -0.018604,0.026665 0.565016,0.362755 0.8964303,1.1169225 -0.8898682,2.6342577 v -2.948656 c 0,0 -0.00149,1.412e-4 0.00186,6.2e-4 L 3.3672364,2.0625097 C 2.9992882,2.1158237 2.7293183,1.9884904 2.5586036,1.6420703 h 0.6170165 c 0.00278,-0.0054 0.00535,-0.012115 0.00806,-0.017363 C 3.1126701,1.5687233 3.0416762,1.5129553 2.9505176,1.439292 h 0.5940722 c 0,0 -0.1105896,-0.1322769 -0.1097606,-0.1407666 z M 3.725044,1.8039209 c -0.04162,0 -0.075654,0.033942 -0.075654,0.075654 0,0.041602 0.034034,0.075034 0.075654,0.075034 0.04173,0 0.075654,-0.033433 0.075654,-0.075034 0,-0.041693 -0.033924,-0.075636 -0.075654,-0.075654 z M 2.2293213,2.7415381 c 0.3174619,0.056534 0.6680383,0.2973372 0.7999512,1.0349754 0.027697,0.1458907 0.045847,0.3190919 0.05209,0.5233792 0.034751,0.1989097 0.052267,0.4461915 0.047129,0.7515818 L 1.7747754,3.8614697 c 0,0 0.092491,-0.081416 0.2288232,-0.1612305 L 1.6730762,3.3033642 c 0,0 0.1234914,-0.055747 0.2982764,-0.077515 L 1.6271875,2.8128516 c 0,0 0.2846718,-0.127848 0.6021338,-0.071314 z"
       style="stroke-width:0.0184159" />
  </g>
</svg>
