<?xml version="1.0" encoding="UTF-8" standalone="no"?>
<!-- Created with Inkscape (http://www.inkscape.org/) -->

<svg
   width="4.2333331mm"
   height="4.2333331mm"
   viewBox="0 0 4.2333331 4.2333331"
   version="1.1"
   id="svg204"
   inkscape:version="1.2.2 (b0a8486541, 2022-12-01)"
   sodipodi:docname="vscoq-mini-dark.svg"
   xmlns:inkscape="http://www.inkscape.org/namespaces/inkscape"
   xmlns:sodipodi="http://sodipodi.sourceforge.net/DTD/sodipodi-0.dtd"
   xmlns="http://www.w3.org/2000/svg"
   xmlns:svg="http://www.w3.org/2000/svg">
  <sodipodi:namedview
     id="namedview206"
     pagecolor="#ffffff"
     bordercolor="#000000"
     borderopacity="0.25"
     inkscape:showpageshadow="2"
     inkscape:pageopacity="0.0"
     inkscape:pagecheckerboard="0"
     inkscape:deskcolor="#d1d1d1"
     inkscape:document-units="mm"
     showgrid="false"
     inkscape:zoom="14.638496"
     inkscape:cx="10.38358"
     inkscape:cy="24.626847"
     inkscape:window-width="2560"
     inkscape:window-height="1376"
     inkscape:window-x="0"
     inkscape:window-y="0"
     inkscape:window-maximized="1"
     inkscape:current-layer="layer1" />
  <defs
     id="defs201" />
  <g
     inkscape:label="Layer 1"
     inkscape:groupmode="layer"
     id="layer1"
     transform="translate(-96.93177,-47.072674)">
    <path
       id="path246"
       d="m 99.048445,47.328162 c -1.16882,0 -2.11667,0.947858 -2.11667,2.117081 -1e-5,0.64178 0.28566,1.217082 0.7367,1.605276 0.37063,-0.31895 0.85294,-0.512217 1.37997,-0.512217 0.52726,0 1.009345,0.193279 1.379955,0.512217 0.45102,-0.388194 0.7367,-0.963496 0.7367,-1.605276 0,-1.16921 -0.94761,-2.117081 -2.116655,-2.117081 z m 0.17322,0.610195 c 0.0929,0.0053 0.18854,0.0011 0.27864,0.01985 0.0782,0.01628 0.10829,0.11604 0.0736,0.19141 -0.003,0.0076 -0.0206,0.05627 -0.0203,0.112447 l 0.18521,-0.07483 -0.12279,0.216628 c 0.019,0.01498 0.0435,0.02753 0.0744,0.03597 0.0866,0.02356 0.12097,0.09023 0.11617,0.168672 -0.001,0.0198 -0.002,0.045 -0.0141,0.05788 -0.005,0.0061 -0.009,0.01183 -0.0124,0.01778 0.376675,0.241837 0.597615,0.744615 -0.59324,1.756171 v -1.96577 c 0,0 -6.7e-4,9.4e-5 0.001,4.13e-4 l -0.0116,-0.02729 c -0.2453,0.03554 -0.42528,-0.04935 -0.53909,-0.280293 h 0.41134 c 0.002,-0.0036 0.003,-0.0081 0.005,-0.01157 -0.0473,-0.03732 -0.0947,-0.0745 -0.15544,-0.12361 h 0.39604 c 0,0 -0.0737,-0.08819 -0.0732,-0.09385 z m 0.19347,0.336931 c -0.0277,0 -0.0504,0.02263 -0.0504,0.05043 0,0.02773 0.0227,0.05002 0.0504,0.05002 0.0278,0 0.0505,-0.02229 0.0505,-0.05002 0,-0.02779 -0.0226,-0.05043 -0.0505,-0.05043 z m -0.99715,0.625078 c 0.21164,0.03769 0.44536,0.198225 0.5333,0.689983 0.0185,0.09726 0.0306,0.212728 0.0347,0.34892 0.0231,0.132606 0.0349,0.297461 0.0314,0.501054 l -0.90248,-0.793336 c 0,0 0.0617,-0.05428 0.15255,-0.107487 l -0.22035,-0.264583 c 0,0 0.0823,-0.03717 0.19885,-0.05167 l -0.22944,-0.275331 c 0,0 0.18978,-0.08523 0.40142,-0.04754 z"
       style="stroke-width:0.0122773;fill:#d1d1d1;fill-opacity:1" />
  </g>
</svg>
